# xmcd
#
# Track frame offsets: 
#        150
#        16701
#        34937
#        38942
#        59226
#        83363
#        104462
#        122051
#        141374
#        164194
#        184130
#        206581
#        229986
#        247582
#        272304
#        292324
#        307920
#        326318
#
# Disc length: 4631 seconds
#
# Revision: 0
# Processed by: cddbd v1.5.2PL0 Copyright (c) Steve Scherf et al.
# Submitted via: ExactAudioCopy v0.99pb5
#
DISCID=00121512
DTITLE=Ultimate Collection - Crescendo
DYEAR=2008
DGENRE=Pop
TTITLE0=ดินแดนแห่งความรัก
TTITLE1=ความจริงในใจ
TTITLE2=รู้บ้างไหม(Interlude)
TTITLE3=รู้บ้างไหม
TTITLE4=โลกหมุนด้วยความรัก
TTITLE5=วีนัส
TTITLE6=ผ้าห่มผืนเดิม
TTITLE7=เก็บมันไว้ในใจ
TTITLE8=ความเหงาที่ไม่มีใครเข้าใจ
TTITLE9=โปรดทราบ
TTITLE10=ก้อนน้ำแข็ง
TTITLE11=แค่เพียงเขาไม่เคย
TTITLE12=เพื่อนแท้
TTITLE13=ผู้ชายคนนี้
TTITLE14=Second Chance
TTITLE15=ยอมได้ไง
TTITLE16=Every Body
TTITLE17=ชวน
EXTD=
EXTT0=
EXTT1=
EXTT2=
EXTT3=
EXTT4=
EXTT5=
EXTT6=
EXTT7=
EXTT8=
EXTT9=
EXTT10=
EXTT11=
EXTT12=
EXTT13=
EXTT14=
EXTT15=
EXTT16=
EXTT17=
PLAYORDER=
